<?xml version="1.0" standalone="no"?>
<!DOCTYPE svg PUBLIC "-//W3C//DTD SVG 20010904//EN"
 "http://www.w3.org/TR/2001/REC-SVG-20010904/DTD/svg10.dtd">
<svg version="1.0" xmlns="http://www.w3.org/2000/svg"
 width="512.000000pt" height="512.000000pt" viewBox="0 0 512.000000 512.000000"
 preserveAspectRatio="xMidYMid meet">
<metadata>
Created by potrace 1.14, written by Peter Selinger 2001-2017
</metadata>
<g transform="translate(0.000000,512.000000) scale(0.100000,-0.100000)"
fill="#000000" stroke="none">
<path d="M3310 4090 c-11 -11 -20 -29 -20 -40 0 -21 33 -60 50 -60 6 0 10 -4
10 -10 0 -5 -7 -7 -15 -4 -10 4 -18 -3 -24 -19 -11 -29 -39 -47 -71 -47 -59 0
-134 -66 -110 -96 7 -7 16 -12 20 -9 5 3 11 1 14 -4 4 -5 2 -12 -4 -16 -18
-11 -11 -31 14 -43 24 -11 50 -68 44 -98 -2 -8 -74 -52 -165 -99 -89 -45 -204
-105 -255 -133 -534 -284 -913 -482 -927 -482 -10 0 -23 42 -25 78 -1 13 -7
27 -14 31 -11 7 -172 462 -172 487 0 21 180 121 193 108 3 -3 14 -1 24 5 11 5
45 11 77 12 31 1 65 8 74 16 16 12 16 14 -2 28 -14 10 -48 14 -135 14 -64 -1
-159 3 -211 7 -138 11 -160 11 -214 1 -92 -16 -165 -67 -166 -114 0 -27 18
-33 100 -31 50 1 77 -4 116 -22 l50 -23 86 -259 c69 -207 84 -260 72 -265 -21
-8 -18 -43 5 -43 15 0 26 -19 50 -92 l31 -91 -33 -36 c-17 -20 -49 -69 -71
-108 -34 -63 -41 -70 -60 -64 -11 5 -27 21 -36 36 -8 15 -18 26 -22 24 -9 -6
-48 32 -43 41 5 7 -6 14 -30 20 -24 5 -45 22 -45 35 0 8 -6 16 -12 17 -7 0
-17 2 -23 2 -15 2 -51 25 -40 26 20 1 -20 20 -42 20 -12 0 -30 9 -40 19 -10
10 -31 19 -47 19 -15 0 -32 5 -36 13 -5 7 -27 14 -51 15 -23 1 -45 7 -49 14
-5 7 -20 9 -42 5 -23 -4 -38 -3 -43 5 -5 7 -21 9 -47 5 -27 -5 -43 -3 -48 5
-6 9 -13 9 -28 1 -13 -7 -38 -9 -62 -5 -28 5 -40 3 -40 -6 0 -8 -13 -10 -40
-7 -26 3 -44 0 -51 -9 -6 -7 -26 -13 -44 -12 -20 1 -40 -6 -51 -16 -9 -10 -25
-15 -36 -13 -11 3 -27 -3 -38 -15 -10 -11 -31 -22 -46 -24 -16 -1 -35 -11 -43
-22 -9 -11 -28 -22 -43 -26 -16 -3 -28 -13 -28 -20 0 -12 -13 -22 -40 -31 -29
-10 -40 -20 -36 -30 4 -12 -15 -27 -39 -29 -5 -1 -15 -13 -22 -27 -7 -15 -24
-34 -38 -43 -14 -9 -25 -25 -25 -35 0 -18 -30 -52 -30 -35 -1 15 -24 -30 -25
-49 -1 -10 -11 -24 -22 -32 -12 -8 -20 -26 -20 -41 0 -15 -8 -33 -17 -40 -15
-10 -20 -28 -25 -82 0 -7 -5 -10 -11 -7 -10 6 -14 -13 -10 -48 1 -10 -4 -25
-11 -33 -7 -8 -12 -31 -11 -51 1 -20 -2 -41 -7 -47 -10 -14 -10 -46 0 -46 4 0
7 -9 6 -20 -1 -11 -5 -20 -9 -20 -11 0 -10 -37 0 -44 7 -4 8 -45 2 -53 -7 -9
-4 -31 6 -47 7 -10 10 -32 7 -47 -3 -19 0 -34 11 -44 11 -11 14 -25 10 -42 -5
-19 -2 -30 11 -39 10 -7 17 -26 17 -41 0 -15 9 -36 19 -46 10 -10 19 -26 19
-37 0 -27 11 -51 21 -45 10 7 32 -32 24 -44 -3 -5 8 -19 25 -31 16 -12 30 -30
30 -39 0 -19 28 -49 39 -42 3 2 13 -8 21 -23 8 -15 26 -32 39 -39 13 -7 23
-16 22 -20 -2 -10 26 -38 36 -36 16 4 43 -13 43 -27 0 -8 14 -17 30 -21 17 -3
37 -15 45 -26 7 -11 25 -21 39 -22 14 -2 37 -12 51 -23 14 -11 34 -18 44 -15
10 2 24 -2 32 -9 18 -18 49 -30 49 -19 0 5 9 7 20 4 11 -3 20 -9 20 -13 0 -4
11 -10 25 -12 14 -3 25 -2 25 2 0 4 11 5 25 2 14 -2 25 -7 25 -11 0 -4 9 -7
20 -7 11 0 20 3 20 6 0 10 39 9 45 -1 7 -11 45 -12 45 -1 0 11 43 13 50 2 3
-5 18 -3 34 5 33 17 56 19 56 5 0 -12 30 -1 49 17 8 9 24 12 41 8 21 -5 31 -2
38 10 5 10 24 18 43 20 50 4 51 4 44 14 -6 11 25 24 73 29 6 1 12 9 12 17 0 8
6 16 13 17 6 0 17 2 22 2 18 3 47 23 45 32 -1 5 6 12 14 17 44 20 51 25 51 33
0 18 17 34 35 34 11 0 22 11 29 30 6 17 21 34 35 40 16 6 26 17 26 29 0 11 11
28 25 38 14 10 27 29 30 42 9 46 43 64 150 77 22 3 56 9 75 14 31 8 91 17 158
25 12 1 24 0 26 -4 6 -8 90 -6 104 3 7 4 12 2 12 -6 1 -10 4 -9 13 2 7 8 17
15 22 16 23 3 55 17 55 25 0 5 5 9 11 9 7 0 27 16 45 36 l34 36 66 -22 c47
-16 68 -29 76 -46 9 -19 16 -23 32 -18 12 4 36 11 55 15 19 4 37 11 40 16 3 5
18 14 33 20 20 9 25 17 21 33 -7 28 -16 31 -50 19 -26 -9 -43 -4 -137 41 -85
40 -106 53 -97 63 8 10 7 17 -1 25 -9 9 -9 12 1 12 11 0 11 3 0 16 -10 13 -10
17 1 24 12 7 11 10 -3 16 -13 5 -15 10 -7 19 8 9 6 14 -6 19 -9 3 -14 13 -11
20 3 8 -1 17 -8 20 -9 3 -12 12 -8 22 4 12 3 15 -5 10 -7 -4 -12 -2 -12 5 0
33 697 1100 779 1193 9 10 35 32 59 48 35 24 50 29 77 24 29 -6 35 -12 41 -41
5 -29 9 -33 30 -29 38 7 102 -40 125 -91 11 -25 25 -48 33 -52 19 -12 106
-238 106 -278 0 -24 -6 -37 -20 -45 -11 -6 -18 -15 -15 -20 3 -5 -11 -18 -32
-28 -21 -10 -37 -23 -36 -29 1 -7 -11 -17 -28 -25 -19 -8 -36 -26 -45 -47 -8
-19 -17 -31 -21 -28 -10 10 -33 -13 -33 -34 0 -9 -14 -27 -30 -39 -17 -12 -28
-26 -25 -31 8 -12 -14 -51 -26 -44 -5 4 -10 0 -10 -7 -1 -7 -3 -24 -4 -37 -1
-14 -10 -30 -20 -37 -10 -7 -19 -29 -21 -48 -1 -20 -9 -43 -18 -51 -10 -10
-13 -26 -10 -43 4 -19 0 -33 -10 -41 -18 -15 -21 -38 -6 -43 6 -2 4 -14 -5
-31 -12 -24 -13 -38 -4 -72 1 -5 -1 -22 -5 -38 -5 -16 -4 -32 2 -40 13 -15 13
-29 1 -44 -7 -8 -5 -22 6 -43 11 -22 13 -36 7 -42 -11 -11 -5 -39 11 -50 6 -3
10 -21 10 -40 0 -18 8 -44 18 -57 10 -13 16 -27 13 -32 -8 -13 6 -50 16 -44 9
6 20 -18 20 -46 0 -10 11 -29 25 -41 14 -12 24 -27 21 -33 -4 -13 15 -42 28
-43 5 0 17 -15 26 -34 9 -18 21 -32 27 -31 7 1 17 -11 25 -28 7 -17 28 -37 46
-46 18 -9 30 -18 27 -21 -9 -9 26 -41 40 -36 7 3 23 -9 35 -26 14 -19 28 -29
37 -26 8 3 25 -6 38 -20 15 -16 31 -24 40 -20 9 3 25 -4 37 -16 12 -12 37 -22
56 -24 20 -1 39 -10 45 -19 6 -12 16 -15 33 -11 15 4 33 1 45 -8 13 -9 34 -12
60 -9 25 4 39 2 39 -6 0 -6 9 -11 20 -11 11 0 20 5 20 11 0 6 5 7 13 2 16 -10
167 -11 167 -1 0 4 20 8 44 8 25 0 46 5 48 12 2 6 21 11 45 10 28 -1 43 3 47
13 3 8 16 15 30 15 32 0 57 10 51 20 -5 9 26 22 41 19 17 -4 44 13 44 27 0 15
1 15 38 19 25 3 37 11 37 27 0 6 16 18 35 27 19 10 34 23 32 30 -1 6 12 18 29
25 20 8 37 26 45 46 8 18 17 30 21 27 10 -10 33 13 33 34 0 10 11 26 25 35 14
9 25 25 25 35 0 10 10 27 21 38 12 11 23 32 25 48 1 15 11 33 20 40 10 7 19
26 20 41 3 49 4 53 14 47 10 -6 14 19 10 63 -1 12 3 22 8 22 14 0 23 42 12 55
-6 8 -5 18 5 31 15 20 20 54 7 54 -4 0 -8 9 -8 20 0 11 4 20 8 20 10 0 11 44
1 54 -10 10 -14 46 -5 46 14 0 10 33 -5 48 -15 16 -17 42 -3 42 11 0 1 32 -13
41 -5 4 -10 23 -11 43 -1 20 -7 41 -15 45 -8 5 -14 23 -13 39 0 18 -7 37 -19
48 -10 9 -19 28 -19 41 0 13 -11 33 -25 45 -14 12 -24 27 -21 33 4 12 -18 47
-30 45 -4 -1 -15 13 -24 32 -9 18 -22 32 -29 30 -6 -1 -19 14 -27 33 -9 22
-21 35 -33 35 -10 0 -24 7 -31 15 -7 8 -9 15 -5 15 5 0 0 9 -9 19 -10 11 -24
17 -31 15 -7 -3 -22 8 -34 25 -13 18 -27 28 -36 25 -8 -3 -25 6 -39 21 -16 17
-32 25 -41 21 -9 -3 -25 4 -37 16 -11 11 -36 22 -54 24 -19 1 -41 9 -50 18
-10 10 -24 14 -39 10 -16 -4 -30 0 -40 10 -18 17 -45 22 -45 7 0 -12 -43 -1
-52 13 -4 7 -18 6 -42 -1 -20 -6 -36 -7 -36 -2 0 12 -47 12 -54 0 -6 -10 -20
-9 -47 3 -8 4 -28 0 -44 -8 -18 -9 -33 -12 -38 -7 -10 10 -38 3 -49 -12 -3 -6
-25 -10 -47 -9 -33 2 -41 -2 -42 -16 -1 -9 -7 1 -13 23 -10 32 -18 40 -37 40
-22 0 -24 -4 -22 -39 5 -75 -19 -61 -55 32 l-33 87 15 70 c9 44 13 112 12 185
-3 96 0 121 15 152 24 48 24 131 0 184 -17 38 -79 97 -128 123 -41 21 -110
142 -104 182 1 9 -13 29 -30 44 -25 20 -29 29 -19 35 24 15 20 41 -7 51 -14 5
-44 27 -66 49 -44 45 -68 49 -97 20z m113 -281 c10 -11 23 -17 28 -13 22 13
-2 -147 -27 -188 -4 -6 -21 16 -40 48 -18 33 -42 77 -54 98 l-22 40 28 23 c32
25 57 23 87 -8z m80 -126 c3 -2 15 -2 27 2 17 6 20 12 16 33 -5 20 -4 23 4 12
13 -20 13 -105 -1 -155 -11 -38 -57 -114 -70 -115 -4 0 -17 25 -29 55 -21 52
-21 57 -7 88 19 40 36 109 38 157 1 28 3 25 9 -18 4 -29 10 -56 13 -59z m97
17 c6 -11 8 -20 6 -20 -3 0 -10 9 -16 20 -6 11 -8 20 -6 20 3 0 10 -9 16 -20z
m109 -71 c49 -46 66 -148 37 -214 -12 -28 -14 -28 -21 -10 -50 130 -67 178
-71 199 -2 14 -9 37 -14 51 -6 15 -10 29 -10 31 0 7 49 -28 79 -57z m-82 -101
c-17 -38 -47 -68 -99 -97 -47 -26 -50 -11 -8 46 37 51 60 113 60 167 l1 41 30
-62 c28 -58 29 -64 16 -95z m-1847 108 c0 -11 -106 -66 -118 -61 -20 7 -15 11
54 40 66 27 64 26 64 21z m-245 -74 c-3 -3 -11 0 -18 7 -9 10 -8 11 6 5 10 -3
15 -9 12 -12z m2169 -177 c1 -25 -6 -33 -53 -62 -53 -32 -54 -32 -83 -15 -17
9 -38 33 -49 53 l-18 37 32 13 c40 17 117 92 118 116 1 27 51 -108 53 -142z
m22 -195 c-3 -58 -9 -118 -14 -135 l-8 -29 -17 43 c-10 23 -15 47 -11 52 10
17 -47 149 -65 149 -9 0 11 15 44 34 59 33 60 33 68 12 5 -11 6 -68 3 -126z
m-666 136 c0 -2 -13 -9 -30 -15 -35 -12 -41 -5 -7 9 25 10 37 12 37 6z m-6
-38 c-4 -7 -20 -29 -35 -48 -15 -19 -94 -141 -177 -270 -440 -691 -551 -860
-556 -852 -3 5 3 57 13 115 10 58 14 110 10 114 -4 4 -1 44 7 87 10 58 11 83
3 93 -7 8 -8 13 -1 13 17 0 22 29 7 43 -14 14 -72 19 -260 21 l-89 1 -34 99
-34 100 28 22 c15 13 32 20 37 17 4 -3 16 2 25 10 9 8 37 24 62 35 42 18 130
57 260 115 30 14 118 53 195 87 77 34 164 73 192 86 29 13 65 26 80 30 16 4
35 13 43 20 9 7 58 25 110 39 52 15 100 28 105 30 6 2 11 4 13 4 2 1 0 -5 -4
-11z m-1260 -585 c-30 -53 -76 -114 -82 -109 -10 11 89 156 106 156 2 0 -9
-21 -24 -47z m32 -104 c-4 -4 -17 -4 -27 -2 -10 3 -35 -5 -56 -18 l-38 -23 43
47 c23 26 50 63 60 84 l17 36 5 -59 c3 -32 1 -62 -4 -65z m2311 -105 c23 -109
43 -206 43 -216 0 -11 -12 -18 -42 -23 -24 -4 -50 -11 -59 -16 -14 -7 -18 -2
-23 29 -4 20 -23 114 -42 207 -19 94 -36 176 -37 184 -2 15 71 40 103 36 11
-1 26 -53 57 -201z m98 186 c2 -8 6 -79 10 -156 6 -132 5 -145 -15 -193 -13
-28 -26 -51 -30 -51 -4 0 -10 15 -13 33 -3 17 -22 109 -41 202 -20 94 -36 174
-36 178 0 4 28 7 62 5 45 -2 62 -7 63 -18z m122 -1 c13 -5 23 -13 21 -18 -14
-37 -112 -250 -114 -248 -1 1 -6 67 -9 145 l-7 143 42 -6 c23 -3 53 -11 67
-16z m-3363 0 c2 -2 6 -76 10 -164 6 -154 5 -162 -18 -215 -15 -34 -26 -49
-30 -40 -2 8 -23 105 -45 215 -28 137 -37 201 -30 206 11 6 107 5 113 -2z
m-125 -61 c7 -35 27 -134 45 -221 18 -87 31 -169 28 -182 -5 -29 -79 -52 -100
-31 -7 7 -35 116 -61 242 l-48 229 46 12 c78 19 78 20 90 -49z m221 51 c27 -6
50 -15 50 -20 0 -5 -22 -55 -48 -112 -26 -56 -53 -113 -59 -127 -11 -23 -12
-20 -13 30 0 30 -3 97 -6 148 -7 104 -11 100 76 81z m2911 -189 c17 -85 33
-164 35 -175 2 -11 6 -33 10 -50 11 -54 -12 -14 -51 90 -22 55 -56 143 -76
195 l-37 95 36 17 c46 21 41 31 83 -172z m453 169 c31 -12 56 -25 56 -30 0 -5
-54 -91 -120 -191 -117 -178 -120 -182 -120 -143 0 23 -5 46 -12 53 -8 8 -8
12 -1 12 6 0 10 6 9 13 -1 10 125 306 131 307 0 0 26 -10 57 -21z m-3725 -36
c13 -53 81 -386 81 -396 0 -4 -22 14 -50 40 -41 41 -55 63 -83 143 -19 52 -44
119 -56 148 l-21 53 52 24 c29 14 56 25 60 25 4 0 11 -17 17 -37z m492 16 c27
-12 49 -25 49 -30 0 -8 -25 -47 -148 -232 -36 -54 -63 -100 -60 -103 3 -2 56
72 117 166 l111 170 50 -33 c27 -17 50 -35 50 -38 0 -3 -33 -57 -74 -119 l-74
-114 -84 -18 c-46 -10 -93 -20 -105 -23 -20 -5 -22 -1 -25 47 -3 56 3 76 81
243 23 48 41 91 41 96 0 14 17 11 71 -12z m3362 -49 c26 -16 47 -32 47 -34 0
-3 -31 -51 -68 -108 -37 -57 -92 -140 -122 -185 l-53 -82 -36 30 c-20 16 -42
29 -49 29 -9 0 -12 7 -10 18 6 20 230 362 239 362 3 0 26 -13 52 -30z m-3970
-46 c69 -182 76 -204 63 -197 -21 12 -196 175 -196 182 1 10 95 71 105 68 5
-2 18 -26 28 -53z m1618 30 c19 -11 7 -22 -52 -48 -68 -29 -86 -31 -112 -11
-11 7 -28 12 -38 10 -18 -4 -39 26 -39 55 0 9 226 3 241 -6z m1567 -100 c-2
-1 -21 13 -42 32 -39 33 -39 34 -21 55 19 20 19 20 42 -32 13 -29 22 -53 21
-55z m-1938 86 c0 -5 -2 -10 -4 -10 -3 0 -8 5 -11 10 -3 6 -1 10 4 10 6 0 11
-4 11 -10z m34 -15 c3 -8 1 -15 -4 -15 -6 0 -10 7 -10 15 0 8 2 15 4 15 2 0 6
-7 10 -15z m2798 -42 c21 -20 38 -41 38 -47 0 -5 -28 -39 -62 -75 -35 -36 -83
-88 -108 -116 -42 -46 -80 -69 -138 -82 -19 -5 -2 27 95 175 65 100 122 181
128 182 5 0 26 -17 47 -37z m-3216 -43 c15 -18 7 -29 -43 -55 -21 -11 -42 -26
-46 -32 -9 -14 -67 -46 -105 -57 -19 -6 -10 12 49 104 l72 111 31 -28 c16 -15
36 -35 42 -43z m423 -63 c32 -135 31 -129 32 -152 2 -37 20 -74 34 -69 23 9
29 -36 9 -56 -24 -24 -102 -30 -114 -10 -5 9 -5 17 0 20 5 3 2 19 -6 35 -9 17
-16 43 -16 59 1 16 -6 35 -15 41 -9 7 -16 25 -15 44 0 21 -5 34 -19 41 -11 7
-19 21 -19 37 0 15 -11 36 -27 50 l-26 25 38 33 c38 32 40 32 80 19 l40 -14
24 -103z m1868 81 c53 -55 69 -81 103 -167 l20 -51 -84 56 c-74 49 -84 60 -90
92 -4 20 -10 56 -15 80 -11 57 2 55 66 -10z m-3115 -130 c43 -40 61 -67 77
-111 12 -32 18 -56 14 -54 -5 3 -64 42 -133 87 -69 46 -149 98 -177 117 -29
19 -53 38 -53 41 0 3 19 25 42 49 l41 42 66 -59 c36 -33 92 -83 123 -112z
m1576 115 c-5 -27 -10 -55 -11 -63 -1 -8 -6 -21 -10 -27 -8 -12 -12 -27 -22
-78 -6 -29 -25 -149 -25 -157 0 -24 -19 -1 -34 42 -14 40 -16 53 -6 65 15 18
5 49 -14 42 -24 -10 -46 71 -34 126 9 45 9 45 81 70 40 14 75 25 78 26 4 1 2
-20 -3 -46z m1476 -71 c4 -7 -13 0 -38 16 -25 15 -46 31 -46 36 0 6 12 23 27
39 l28 28 11 -53 c6 -30 14 -60 18 -66z m-1753 -22 c31 -92 35 -111 23 -121
-16 -13 -13 -21 -48 117 -43 168 -31 170 25 4z m2811 53 c8 -10 25 -34 37 -55
l21 -36 -67 -26 c-38 -14 -99 -37 -138 -51 l-69 -26 24 28 c14 15 47 51 75 81
27 29 58 64 69 77 23 30 28 30 48 8z m-1104 -25 c46 -30 50 -36 71 -112 13
-45 25 -87 28 -94 3 -8 -45 19 -106 60 -61 40 -111 75 -111 79 0 8 59 99 65
99 3 0 27 -14 53 -32z m-3055 -138 c86 -56 157 -107 157 -112 0 -5 5 -6 12 -2
11 7 -24 -59 -43 -80 -15 -16 -184 -23 -219 -8 -14 6 -79 35 -145 66 -130 61
-127 56 -95 131 l19 45 66 -43 c36 -23 74 -47 83 -52 9 -6 63 -41 120 -79 56
-38 105 -66 108 -64 3 3 -76 58 -176 123 -99 65 -183 122 -186 126 -2 5 10 30
28 58 l33 49 40 -27 c22 -15 111 -74 198 -131z m965 79 c7 -12 12 -22 10 -23
-4 -4 -187 -73 -213 -82 -11 -3 25 24 80 60 55 36 102 66 105 66 3 0 11 -9 18
-21z m2260 -52 c39 -27 72 -50 72 -50 0 -1 9 -25 20 -54 l19 -52 -34 -11 c-30
-10 -38 -8 -73 15 -44 29 -54 47 -82 146 -13 47 -15 67 -7 62 7 -5 45 -30 85
-56z m-2812 8 c1 -46 -6 -55 -23 -32 -7 8 -6 23 3 45 8 17 15 32 17 32 1 0 3
-20 3 -45z m3239 1 c2 -29 0 -33 -21 -33 -29 0 -28 -3 -7 42 19 40 25 39 28
-9z m591 -13 c37 -88 45 -78 -79 -103 -62 -13 -159 -33 -217 -46 -104 -23
-105 -23 -125 -4 -23 23 -17 31 40 55 l40 16 -34 -35 c-19 -20 -32 -38 -29
-41 3 -3 22 14 43 37 34 37 58 50 184 100 80 31 149 56 153 57 4 1 15 -16 24
-36z m-1187 -51 c101 -68 116 -82 130 -119 8 -23 12 -45 8 -49 -7 -7 -274 109
-301 130 -12 9 -11 19 6 64 11 28 26 52 32 52 6 0 62 -35 125 -78z m-2050 26
c34 -76 34 -75 -12 -82 -48 -7 -254 -50 -340 -70 l-59 -14 21 22 c36 38 23 40
-19 2 -22 -20 -45 -36 -50 -36 -23 0 -7 19 46 54 31 21 53 33 50 27 -12 -19 5
-12 22 9 15 17 277 127 309 129 7 1 21 -18 32 -41z m-339 28 c0 -2 -11 -11
-25 -20 -28 -19 -33 -15 -9 8 14 15 34 22 34 12z m-450 -106 c0 -11 -4 -21 -9
-24 -19 -12 -41 8 -57 52 -10 26 -22 54 -28 62 -6 8 13 -5 42 -29 28 -23 52
-51 52 -61z m385 72 c-24 -39 -74 -67 -91 -50 -20 20 5 61 41 69 64 14 68 12
50 -19z m2915 -32 c0 -5 -4 -10 -10 -10 -5 0 -10 5 -10 10 0 6 5 10 10 10 6 0
10 -4 10 -10z m83 -40 c8 -35 -17 -68 -37 -50 -12 9 -13 17 -5 31 5 11 7 25 3
31 -4 6 -3 8 4 4 6 -3 14 -1 17 5 9 13 11 10 18 -21z m27 21 c0 -6 -4 -13 -10
-16 -5 -3 -10 1 -10 9 0 9 5 16 10 16 6 0 10 -4 10 -9z m95 -1 c3 -5 -1 -10
-9 -10 -9 0 -16 5 -16 10 0 6 4 10 9 10 6 0 13 -4 16 -10z m-195 -16 c0 -14
-3 -14 -15 -4 -8 7 -15 14 -15 16 0 2 7 4 15 4 8 0 15 -7 15 -16z m0 -56 c0
-22 -8 -23 -32 -1 -10 9 -18 27 -18 41 l0 25 25 -23 c14 -13 25 -32 25 -42z
m760 20 c6 -24 13 -48 15 -55 5 -16 -14 -29 -50 -36 -16 -4 -108 -23 -203 -43
-96 -19 -176 -34 -178 -31 -3 3 -8 20 -11 38 -2 18 -8 42 -13 54 -8 22 -4 24
138 54 250 53 277 59 284 60 4 1 12 -18 18 -41z m-3930 28 c0 -3 -4 -8 -10
-11 -5 -3 -10 -1 -10 4 0 6 5 11 10 11 6 0 10 -2 10 -4z m2652 -53 c70 -31
126 -58 125 -59 -3 -3 -170 -13 -224 -13 -24 -1 -43 -5 -43 -11 0 -5 12 -7 28
-5 48 8 265 15 288 9 17 -4 22 -13 22 -35 -1 -27 -4 -29 -72 -44 -96 -20 -273
-55 -281 -55 -3 0 -5 35 -4 78 2 85 18 192 27 192 4 0 64 -26 134 -57z m702
20 c-25 -18 -43 -16 -39 5 2 9 4 20 4 24 1 4 13 2 27 -4 24 -11 25 -13 8 -25z
m-2668 14 c2 -7 6 -26 7 -41 l2 -28 -120 -4 c-66 -2 -167 -6 -224 -8 -57 -2
-99 -1 -95 4 8 7 266 64 349 77 17 3 32 7 34 9 10 9 42 3 47 -9z m-1274 -50
c62 -30 120 -56 128 -60 8 -3 -21 -6 -65 -7 -44 0 -113 -3 -152 -6 l-73 -6 6
44 c8 54 21 88 33 88 5 0 61 -24 123 -53z m3881 10 c-21 -13 -26 -2 -12 24 12
23 12 23 19 4 5 -13 2 -23 -7 -28z m-413 -21 c-8 -8 -15 -6 -26 8 -22 30 -17
38 12 20 18 -13 22 -20 14 -28z m500 39 c0 -2 -13 -11 -30 -20 -16 -9 -30 -12
-30 -7 0 4 12 13 28 19 15 6 28 11 30 12 1 1 2 -1 2 -4z m70 -25 c0 -5 -5 -10
-11 -10 -5 0 -7 5 -4 10 3 6 8 10 11 10 2 0 4 -4 4 -10z m-143 -16 c-3 -3 -12
-4 -19 -1 -8 3 -5 6 6 6 11 1 17 -2 13 -5z m41 -29 c-8 -18 -15 -22 -22 -15
-7 7 -4 15 10 25 25 19 25 19 12 -10z m61 -11 c-21 -22 -59 -33 -59 -16 1 15
26 40 45 44 33 7 38 -3 14 -28z m-2449 20 c0 0 -9 -9 -20 -19 -19 -18 -20 -17
-20 1 0 13 7 20 20 20 11 0 20 -1 20 -2z m80 -15 c-35 -28 -60 -41 -60 -32 0
10 61 53 75 53 5 0 -1 -9 -15 -21z m-333 -5 c-2 -2 -91 -23 -198 -45 -184 -39
-265 -49 -287 -35 -11 7 -22 65 -13 71 4 2 103 6 221 10 118 3 216 7 217 9 2
1 17 1 33 -2 17 -2 29 -6 27 -8z m2233 -9 c0 -8 -4 -15 -9 -15 -13 0 -22 16
-14 24 11 11 23 6 23 -9z m500 0 c0 -8 -7 -15 -16 -15 -14 0 -14 3 -4 15 7 8
14 15 16 15 2 0 4 -7 4 -15z m30 5 c0 -5 -4 -10 -10 -10 -5 0 -10 5 -10 10 0
6 5 10 10 10 6 0 10 -4 10 -10z m-485 -10 c3 -5 1 -10 -4 -10 -6 0 -11 5 -11
10 0 6 2 10 4 10 3 0 8 -4 11 -10z m965 -55 l0 -65 -32 0 c-18 0 -91 -3 -163
-6 -127 -6 -131 -5 -190 22 l-60 28 35 7 c19 3 49 9 65 13 193 42 304 64 323
65 21 1 22 -3 22 -64z m-4198 29 c-2 -13 -12 -25 -21 -26 -14 -3 -103 31 -117
44 -2 3 29 5 69 5 71 0 74 -1 69 -23z m960 -15 c2 -22 -1 -43 -7 -47 -9 -6
-93 -4 -185 3 -19 1 -64 4 -100 5 -59 2 -62 3 -30 11 19 5 49 11 65 14 17 3
77 16 135 29 58 13 108 24 111 25 4 0 9 -17 11 -40z m-1077 7 c59 -28 72 -22
-165 -71 -96 -19 -185 -38 -197 -40 -22 -5 -23 -3 -23 59 l0 65 78 3 c248 9
255 9 307 -16z m3380 14 c-3 -5 -11 -10 -16 -10 -6 0 -7 5 -4 10 3 6 11 10 16
10 6 0 7 -4 4 -10z m29 -59 c-2 -2 -16 4 -31 14 -25 17 -26 19 -8 25 15 5 23
2 32 -14 6 -11 10 -23 7 -25z m373 28 c31 -12 38 -29 11 -30 -13 0 -31 -2 -41
-4 -9 -2 -15 1 -12 5 3 5 1 11 -5 15 -6 4 -7 11 -4 17 5 8 1 9 -10 5 -10 -4
-15 -3 -11 4 6 9 22 7 72 -12z m68 -9 c3 -5 1 -10 -4 -10 -6 0 -11 5 -11 10 0
6 2 10 4 10 3 0 8 -4 11 -10z m-3745 -10 c-8 -5 -10 -10 -4 -10 17 0 23 -58 7
-71 -7 -6 -13 -17 -13 -25 0 -7 -8 -15 -17 -18 -46 -14 -382 -80 -408 -80 -27
-1 -30 2 -41 52 -7 28 -9 54 -5 56 7 5 122 32 169 41 15 2 90 18 167 34 160
33 165 34 145 21z m3094 -35 c5 -20 13 -25 37 -25 22 0 32 -6 38 -22 11 -30 8
-35 -31 -42 -18 -3 -44 -8 -58 -11 -76 -16 -183 -38 -237 -49 l-63 -13 -9 31
c-6 17 -11 44 -13 60 -3 32 8 38 92 51 19 3 73 14 120 25 114 24 117 24 124
-5z m611 5 c-3 -5 -12 -7 -20 -3 -21 7 -19 13 6 13 11 0 18 -4 14 -10z m110
-12 c36 -16 31 -26 -15 -26 -33 -1 -40 3 -40 19 0 22 18 24 55 7z m-202 -18
c3 -13 0 -20 -9 -20 -8 0 -14 9 -14 20 0 11 4 20 9 20 5 0 11 -9 14 -20z m52
-20 c3 -11 3 -30 -1 -42 l-7 -23 -8 23 c-5 12 -6 28 -3 36 3 7 -2 16 -10 19
-9 4 -16 11 -16 17 0 18 38 -7 45 -30z m65 30 c0 -5 -5 -10 -11 -10 -5 0 -7 5
-4 10 3 6 8 10 11 10 2 0 4 -4 4 -10z m-401 -26 c-13 -16 -64 -20 -54 -3 9 13
47 28 58 22 4 -3 3 -11 -4 -19z m876 -16 c-11 -65 -17 -88 -24 -93 -8 -4 -114
39 -216 88 l-49 24 89 2 c49 1 90 3 91 4 1 1 28 3 58 5 l56 3 -5 -33z m-160
-56 c107 -48 129 -62 126 -78 -5 -28 -71 -158 -96 -190 l-21 -27 -187 123
-187 122 24 29 c14 16 27 38 31 49 3 11 10 20 15 20 5 0 88 -52 186 -116 97
-63 178 -113 181 -111 2 3 -78 59 -179 125 l-182 121 59 3 c71 4 66 5 230 -70z
m-3512 61 c-7 -2 -19 -2 -25 0 -7 3 -2 5 12 5 14 0 19 -2 13 -5z m32 -3 c-4
-6 9 -8 35 -5 29 4 54 -1 88 -16 165 -75 247 -112 250 -114 2 -1 -7 -28 -20
-59 -14 -35 -28 -54 -36 -51 -12 5 -118 72 -270 173 -74 49 -81 56 -65 68 22
16 26 17 18 4z m310 -24 c28 -2 58 -5 68 -5 19 -1 22 -26 7 -65 -11 -29 -7
-30 -158 40 -41 19 -77 34 -82 34 -5 0 -11 4 -14 8 -3 5 25 5 62 1 37 -5 90
-10 117 -13z m2482 18 c-3 -3 -12 -4 -19 -1 -8 3 -5 6 6 6 11 1 17 -2 13 -5z
m213 -9 c0 -9 -6 -12 -15 -9 -8 4 -12 10 -9 15 8 14 24 10 24 -6z m64 -11 c10
-38 0 -41 -19 -5 -13 26 -13 31 -1 31 7 0 17 -12 20 -26z m-2948 -109 c104
-69 189 -131 188 -138 -1 -7 -13 -32 -28 -56 l-27 -42 -28 18 c-255 164 -351
232 -361 252 -15 33 14 91 46 91 11 0 106 -56 210 -125z m1004 115 c0 -5 -5
-10 -11 -10 -5 0 -7 5 -4 10 3 6 8 10 11 10 2 0 4 -4 4 -10z m1527 4 c-3 -3
-12 -4 -19 -1 -8 3 -5 6 6 6 11 1 17 -2 13 -5z m213 -3 c0 -5 -8 -11 -18 -13
-11 -3 -19 0 -19 8 0 8 9 14 19 14 10 0 18 -4 18 -9z m-160 -5 c0 -3 -4 -8
-10 -11 -5 -3 -10 -1 -10 4 0 6 5 11 10 11 6 0 10 -2 10 -4z m110 -9 c0 -7
-13 -18 -30 -24 -38 -14 -39 -3 -2 19 33 21 32 21 32 5z m119 -39 c-9 -35 -25
-55 -35 -46 -8 9 -11 67 -3 62 5 -3 9 -1 9 5 0 6 7 8 15 5 11 -5 14 -2 9 12
-5 14 -4 16 4 9 8 -8 9 -21 1 -47z m211 37 c0 -9 -6 -12 -15 -9 -8 4 -12 10
-9 15 8 14 24 10 24 -6z m-523 -33 c-50 -51 -47 -66 4 -17 39 38 41 39 54 21
8 -10 12 -22 10 -26 -4 -6 -84 -33 -105 -35 -3 0 -14 -6 -25 -12 -11 -6 -74
-31 -140 -56 -66 -25 -127 -48 -135 -51 -10 -4 -19 3 -27 21 -34 77 -43 103
-36 104 5 0 15 2 23 4 8 2 29 6 45 10 17 3 41 8 55 11 14 3 34 8 45 10 11 2
70 15 130 28 147 31 144 31 102 -12z m375 25 c14 -12 22 -36 19 -61 -2 -17
-51 37 -51 56 0 21 8 22 32 5z m-3539 -12 c13 -6 26 -45 14 -45 -2 0 -32 -11
-67 -25 l-63 -25 24 28 c13 15 26 29 29 32 3 3 11 13 19 23 27 35 2 16 -50
-38 -49 -50 -67 -60 -184 -105 -71 -28 -135 -50 -141 -50 -12 0 -54 88 -54
112 0 9 66 27 218 59 224 47 225 47 255 34z m3397 -6 c-7 -11 -14 -18 -17 -15
-8 8 5 36 17 36 7 0 7 -6 0 -21z m-2204 -6 c-3 -7 0 -13 5 -13 6 0 9 -9 6 -19
-3 -11 1 -22 9 -25 7 -3 11 -12 8 -21 -3 -8 -1 -15 5 -15 6 0 11 -6 11 -14 0
-8 7 -17 16 -20 8 -3 12 -10 9 -16 -3 -5 1 -10 9 -10 9 0 16 -7 16 -15 0 -9 6
-12 15 -9 10 4 15 0 15 -11 0 -9 4 -14 9 -10 5 3 12 1 16 -5 3 -6 -5 -11 -19
-11 -14 -1 -29 -2 -33 -3 -34 -8 -89 -18 -120 -22 -21 -2 -55 -9 -76 -15 -22
-6 -41 -8 -44 -6 -2 3 7 17 21 32 17 19 24 35 20 49 -3 14 3 30 15 45 14 16
19 31 15 48 -4 15 0 30 11 43 11 12 14 26 10 39 -6 19 -3 21 25 19 20 -1 29
-7 26 -15z m2171 -8 c0 -8 -8 -15 -18 -15 -22 0 -34 16 -17 23 24 10 35 7 35
-8z m-2973 -21 c3 -8 2 -12 -4 -9 -6 3 -10 10 -10 16 0 14 7 11 14 -7z m3136
-9 c10 -12 10 -15 -4 -15 -9 0 -16 7 -16 15 0 8 2 15 4 15 2 0 9 -7 16 -15z
m-3101 -81 c11 -31 21 -57 21 -59 0 -2 -22 16 -50 42 -53 49 -70 81 -49 93 22
14 56 -19 78 -76z m1035 65 c36 -29 33 -43 -8 -36 -46 7 -92 37 -74 48 22 15
54 10 82 -12z m1863 -31 l33 -14 -121 -185 c-66 -101 -124 -185 -129 -187 -12
-4 -102 58 -98 67 2 4 57 90 122 190 l119 182 21 -20 c12 -11 36 -26 53 -33z
m13 31 c0 -5 -7 -9 -15 -9 -15 0 -20 12 -9 23 8 8 24 -1 24 -14z m90 5 c0 -8
-4 -12 -10 -9 -5 3 -10 10 -10 16 0 5 5 9 10 9 6 0 10 -7 10 -16z m-3380 -9
c0 -20 40 -35 63 -23 37 19 14 -25 -109 -212 -69 -105 -124 -194 -121 -196 2
-3 58 76 123 175 65 99 120 179 121 177 2 -1 4 -29 6 -62 3 -42 -1 -69 -14
-94 -9 -19 -38 -83 -65 -142 -34 -78 -52 -108 -65 -108 -19 0 -161 71 -198 99
l-23 18 116 178 c64 97 115 179 112 182 -2 3 -57 -75 -121 -172 -128 -195
-114 -186 -181 -120 l-31 30 88 96 c49 53 89 101 89 105 0 5 -42 -36 -93 -90
l-93 -100 -32 46 c-18 26 -32 50 -32 55 0 7 210 92 241 96 8 2 19 6 26 10 24
15 143 57 143 50 0 -4 5 -2 12 5 17 17 38 15 38 -3z m3174 3 c-8 -13 -110
-168 -188 -285 l-41 -62 -42 41 c-46 46 -50 53 -30 72 21 22 172 188 177 196
5 7 108 48 123 49 5 1 5 -5 1 -11z m371 3 c3 -5 2 -12 -3 -15 -5 -3 -9 1 -9 9
0 17 3 19 12 6z m94 -106 c1 -5 -17 8 -39 30 -22 21 -42 36 -45 33 -3 -3 19
-28 48 -55 48 -46 57 -62 99 -174 25 -68 49 -131 53 -140 5 -13 -8 -22 -57
-42 -35 -14 -64 -24 -65 -23 -1 0 -11 46 -22 101 -11 55 -30 145 -41 200 -12
55 -23 108 -25 117 -2 10 8 26 23 37 l27 20 22 -47 c12 -26 22 -51 22 -57z
m-279 85 c0 -5 -5 -10 -11 -10 -5 0 -7 5 -4 10 3 6 8 10 11 10 2 0 4 -4 4 -10z
m130 0 c0 -5 -4 -10 -10 -10 -5 0 -10 5 -10 10 0 6 5 10 10 10 6 0 10 -4 10
-10z m347 -132 l142 -94 -47 -47 -47 -46 -113 107 c-98 92 -117 115 -133 162
-10 30 -19 56 -19 57 0 4 11 -3 217 -139z m-3242 -13 c66 -43 122 -80 124 -82
8 -6 -5 -11 -49 -16 -25 -3 -57 -8 -73 -12 -24 -6 -36 1 -100 58 -60 54 -76
75 -98 130 l-26 65 51 -32 c28 -18 105 -68 171 -111z m765 98 c14 -7 33 -13
43 -13 9 0 17 -4 17 -9 0 -21 -106 24 -131 56 -13 16 -11 16 16 -2 17 -10 41
-25 55 -32z m200 27 c0 -5 -4 -10 -10 -10 -5 0 -10 5 -10 10 0 6 5 10 10 10 6
0 10 -4 10 -10z m1860 6 c0 -3 -4 -8 -10 -11 -5 -3 -10 -1 -10 4 0 6 5 11 10
11 6 0 10 -2 10 -4z m-3290 -21 c10 -12 9 -24 -5 -61 -9 -25 -19 -44 -20 -42
-7 7 -15 100 -10 109 9 13 21 11 35 -6z m3444 -205 c24 -118 42 -218 40 -221
-2 -4 -21 -10 -41 -13 -21 -4 -46 -9 -55 -12 -17 -5 -29 23 -42 101 -3 17 -15
75 -27 130 -43 201 -43 207 -1 212 19 3 44 8 55 12 12 5 23 8 24 7 2 -1 23
-99 47 -216z m-575 183 c-13 -15 -45 -50 -71 -78 -25 -27 -54 -60 -65 -73
l-18 -22 -38 54 -37 54 47 18 c27 10 80 30 118 45 88 35 94 35 64 2z m-2626
-44 c41 -37 105 -175 83 -177 -6 0 -27 -4 -46 -7 -19 -4 -39 -8 -44 -8 -8 -2
-21 46 -41 148 -3 17 -10 47 -15 68 -9 43 -10 43 63 -24z m2888 -209 c-36 -80
-66 -146 -67 -148 -1 -1 -27 7 -58 19 -34 12 -56 26 -54 34 2 7 55 92 118 188
l115 176 5 -62 c5 -59 2 -68 -59 -207z m109 256 c0 -17 -29 -85 -30 -71 0 6
-3 27 -6 48 -5 33 -3 37 15 37 12 0 21 -6 21 -14z m-3050 -124 c12 -62 20
-116 17 -118 -3 -3 -16 -7 -29 -8 -12 -2 -38 -6 -55 -10 -24 -6 -33 -4 -34 6
0 7 -2 29 -4 48 -3 37 64 216 76 202 3 -4 16 -58 29 -120z m1135 118 c3 -5 -1
-10 -10 -10 -9 0 -13 5 -10 10 3 6 8 10 10 10 2 0 7 -4 10 -10z m2000 -285 c3
-16 11 -54 17 -83 6 -28 9 -55 6 -58 -6 -6 -118 -8 -123 -2 -1 2 -6 75 -10
163 l-6 160 27 60 28 60 28 -135 c15 -74 30 -148 33 -165z m-3320 199 c-15
-20 -28 -34 -30 -32 -2 2 9 29 23 60 23 49 27 54 30 32 2 -16 -7 -38 -23 -60z
m48 61 c-7 -21 -13 -19 -13 6 0 11 4 18 10 14 5 -3 7 -12 3 -20z m3572 -130
c87 -74 115 -108 104 -121 -20 -25 -80 -57 -89 -48 -4 5 -28 62 -53 128 l-45
118 36 -33 c20 -19 41 -38 47 -44z m-3589 30 c-5 -20 -11 -25 -26 -20 -13 4
-20 2 -20 -6 0 -7 -3 -9 -7 -6 -3 4 7 20 23 36 33 33 39 33 30 -4z m326 -27
c30 -29 53 -52 50 -51 -2 0 -16 -3 -32 -7 -28 -8 -30 -6 -46 38 -10 26 -22 53
-27 60 -21 27 4 9 55 -40z m2843 -136 l6 -144 -28 6 c-15 3 -45 8 -65 12 -21
3 -38 10 -38 15 0 5 18 49 41 97 22 48 48 104 56 125 9 21 17 37 18 35 2 -2 6
-68 10 -146z m-3185 114 c0 -2 -7 -6 -15 -10 -8 -3 -15 -1 -15 4 0 6 7 10 15
10 8 0 15 -2 15 -4z m538 -63 l-37 -37 -26 24 c-14 13 -27 21 -30 18 -3 -2 4
-13 15 -23 11 -10 20 -21 20 -26 0 -4 -22 -23 -49 -42 l-49 -35 -21 56 c-21
60 -18 71 24 73 22 1 35 3 110 17 80 15 82 14 43 -25z m-619 -23 c17 0 31 -54
31 -119 l0 -68 -57 9 c-32 5 -62 13 -66 17 -4 4 12 51 35 103 26 58 44 88 46
77 2 -10 7 -19 11 -19z m429 -41 l22 -60 -53 -24 c-28 -14 -57 -25 -64 -25 -7
0 -15 17 -18 38 -4 20 -11 50 -16 66 -13 43 -13 44 34 53 73 15 72 16 95 -48z
m-138 -19 c6 -30 14 -65 17 -77 4 -18 -1 -23 -34 -32 -39 -11 -100 -15 -91 -6
3 3 -1 31 -8 63 -17 73 -18 103 -1 97 6 -3 25 -1 41 3 57 15 63 12 76 -48z
m-135 -27 c25 -104 25 -104 -47 -101 l-63 3 -3 79 c-3 65 -1 78 11 73 7 -3 29
-2 48 2 19 4 35 7 37 5 2 -1 10 -28 17 -61z"/>
</g>
</svg>
